# xmcd
#
# Track frame offsets:
#	150
#	18154
#	34672
#	50988
#	70931
#	84322
#	102834
#	122397
#	136661
#	149733
#	165377
#	184483
#	204671
#	220764
#	234275
#	249343
#	267262
#
# Disc length: 3794 seconds
#
# Revision: 6
# Processed by: cddbd v1.5.2PL0 Copyright (c) Steve Scherf et al.
# Submitted via: audiograbber 1.83.01
#
DISCID=eb0ed011
DTITLE=Brooks and Dunn - The Greatest Hits Collection 2
DYEAR=2004
DGENRE=Country
TTITLE0=That's What It's All About
TTITLE1=How Long Gone
TTITLE2=Ain't Nothing 'Bout You
TTITLE3=The Long Goodbye
TTITLE4=My Heart Is Lost To You
TTITLE5=I Can't Get Over You
TTITLE6=Red Dirt Road
TTITLE7=Husbands And Wives
TTITLE8=That's What She Gets For Loving Me
TTITLE9=You Can't Take The Honky Tonk Out Of The Girl
TTITLE10=It's Getting Better All The Time
TTITLE11=Only In America
TTITLE12=A Man This Lonely
TTITLE13=Independent Trucker
TTITLE14=I'll Never Forgive My Heart
TTITLE15=If You See Him, If You See Her (w Reba McEntire)
TTITLE16=South Of Santa Fe
EXTD=
EXTT0=
EXTT1=
EXTT2=
EXTT3=
EXTT4=
EXTT5=
EXTT6=
EXTT7=
EXTT8=
EXTT9=
EXTT10=
EXTT11=
EXTT12=
EXTT13=
EXTT14=
EXTT15=
EXTT16=
PLAYORDER=
